<svg xmlns="http://www.w3.org/2000/svg" version="1.1" xmlns:xlink="http://www.w3.org/1999/xlink" xmlns:svgjs="http://svgjs.com/svgjs" width="1440" height="960" preserveAspectRatio="none" viewBox="0 0 1440 960"><g mask="url(&quot;#SvgjsMask1038&quot;)" fill="none"><rect width="1440" height="960" x="0" y="0" fill="rgba(12, 18, 23, 1)"></rect><path d="M198.53517187284206 197.2296438837134L313.38238620914336 82.38242954741206 198.535171872842-32.46478478888926 83.68795753654071 82.3824295474121z" fill="rgba(21, 224, 154, 0.55)" class="triangle-float1"></path><path d="M1025.039,698.933C1055.764,698.946,1084.756,682.863,1099.506,655.91C1113.728,629.923,1108.082,599.17,1093.856,573.185C1078.923,545.907,1056.108,521.236,1025.039,519.887C991.947,518.45,960.919,537.66,945.026,566.721C929.716,594.714,934.163,628.55,950.682,655.847C966.579,682.114,994.336,698.92,1025.039,698.933" fill="rgba(21, 224, 154, 0.55)" class="triangle-float2"></path><path d="M1465.0801202532473 815.4993253773555L1529.32814239069 537.2105675185485 1251.039384531883 472.9625453811058 1186.7913623944403 751.2513032399129z" fill="rgba(21, 224, 154, 0.55)" class="triangle-float1"></path><path d="M1257.332,332.134C1283.117,330.976,1308.412,321.386,1321.65,299.228C1335.211,276.528,1332.813,248.976,1321.208,225.216C1307.715,197.589,1288.034,169.185,1257.332,167.542C1224.574,165.789,1196.107,188.877,1180.41,217.683C1165.396,245.236,1164.657,279.452,1182.16,305.495C1198.054,329.143,1228.868,333.413,1257.332,332.134" fill="rgba(21, 224, 154, 0.55)" class="triangle-float1"></path><path d="M28.064960932094728 685.2726536367018L140.45793161862804 865.1390054478592 320.32428342978545 752.7460347613259 207.93131274325216 572.8796829501684z" fill="rgba(21, 224, 154, 0.55)" class="triangle-float1"></path><path d="M413.863,299.999C439.178,299.683,460.56,282.807,472.791,260.641C484.585,239.267,484.784,213.846,473.281,192.314C461.034,169.388,439.777,152.345,413.863,150.335C383.968,148.016,350.459,155.396,336.002,181.666C321.857,207.369,336.202,237.637,352.328,262.146C366.515,283.708,388.054,300.321,413.863,299.999" fill="rgba(21, 224, 154, 0.55)" class="triangle-float1"></path><path d="M219.3567863979043 280.34707408994575L387.9900695356958 504.13099923080034 611.7739946765504 335.4977160930089 443.14071153875886 111.71379095215426z" fill="rgba(21, 224, 154, 0.55)" class="triangle-float2"></path><path d="M823.2670739265369 498.88859662433003L724.9329092583134 709.7668932778618 935.8112059118453 808.1010579460853 1034.1453705800686 597.2227612925535z" fill="rgba(21, 224, 154, 0.55)" class="triangle-float1"></path><path d="M200.29183057238717 712.0232118028954L376.42512441099854 640.8607418493665 305.26265445746964 464.72744801075515 129.1293606188583 535.889917964284z" fill="rgba(21, 224, 154, 0.55)" class="triangle-float3"></path><path d="M953.2654220889586 577.589153767765L1208.4301602466253 504.4218424926997 1135.26284897156 249.25710433503292 880.0981108138933 322.4244156100982z" fill="rgba(21, 224, 154, 0.55)" class="triangle-float3"></path></g><defs><mask id="SvgjsMask1038"><rect width="1440" height="960" fill="#ffffff"></rect></mask><style>
            @keyframes float1 {
                0%{transform: translate(0, 0)}
                50%{transform: translate(-10px, 0)}
                100%{transform: translate(0, 0)}
            }

            .triangle-float1 {
                animation: float1 5s infinite;
            }

            @keyframes float2 {
                0%{transform: translate(0, 0)}
                50%{transform: translate(-5px, -5px)}
                100%{transform: translate(0, 0)}
            }

            .triangle-float2 {
                animation: float2 4s infinite;
            }

            @keyframes float3 {
                0%{transform: translate(0, 0)}
                50%{transform: translate(0, -10px)}
                100%{transform: translate(0, 0)}
            }

            .triangle-float3 {
                animation: float3 6s infinite;
            }
        </style></defs></svg>