<svg xmlns="http://www.w3.org/2000/svg" version="1.1" xmlns:xlink="http://www.w3.org/1999/xlink" xmlns:svgjs="http://svgjs.com/svgjs" width="1440" height="2060" preserveAspectRatio="none" viewBox="0 0 1440 2060"><g mask="url(&quot;#SvgjsMask1009&quot;)" fill="none"><rect width="1440" height="2060" x="0" y="0" fill="rgba(12, 18, 23, 1)"></rect><path d="M71.94 278.7L136.9 316.2L136.9 391.2L71.94 428.7L6.99 391.2L6.99 316.2zM6.99 616.2L71.94 653.7L71.94 728.7L6.99 766.2L-57.96 728.7L-57.96 653.7zM6.99 1066.2L71.94 1103.7L71.94 1178.7L6.99 1216.2L-57.96 1178.7L-57.96 1103.7zM71.94 1403.7L136.9 1441.2L136.9 1516.2L71.94 1553.7L6.99 1516.2L6.99 1441.2zM6.99 1741.2L71.94 1778.7L71.94 1853.7L6.99 1891.2L-57.96 1853.7L-57.96 1778.7zM136.9 -58.8L201.85 -21.3L201.85 53.7L136.9 91.2L71.94 53.7L71.94 -21.3zM201.85 278.7L266.81 316.2L266.81 391.2L201.85 428.7L136.9 391.2L136.9 316.2zM136.9 391.2L201.85 428.7L201.85 503.7L136.9 541.2L71.94 503.7L71.94 428.7zM201.85 503.7L266.81 541.2L266.81 616.2L201.85 653.7L136.9 616.2L136.9 541.2zM136.9 616.2L201.85 653.7L201.85 728.7L136.9 766.2L71.94 728.7L71.94 653.7zM201.85 953.7L266.81 991.2L266.81 1066.2L201.85 1103.7L136.9 1066.2L136.9 991.2zM201.85 1178.7L266.81 1216.2L266.81 1291.2L201.85 1328.7L136.9 1291.2L136.9 1216.2zM201.85 1403.7L266.81 1441.2L266.81 1516.2L201.85 1553.7L136.9 1516.2L136.9 1441.2zM136.9 1516.2L201.85 1553.7L201.85 1628.7L136.9 1666.2L71.94 1628.7L71.94 1553.7zM331.76 53.7L396.71 91.2L396.71 166.2L331.76 203.7L266.81 166.2L266.81 91.2zM331.76 503.7L396.71 541.2L396.71 616.2L331.76 653.7L266.81 616.2L266.81 541.2zM266.81 1066.2L331.76 1103.7L331.76 1178.7L266.81 1216.2L201.85 1178.7L201.85 1103.7zM331.76 1178.7L396.71 1216.2L396.71 1291.2L331.76 1328.7L266.81 1291.2L266.81 1216.2zM331.76 1403.7L396.71 1441.2L396.71 1516.2L331.76 1553.7L266.81 1516.2L266.81 1441.2zM266.81 1741.2L331.76 1778.7L331.76 1853.7L266.81 1891.2L201.85 1853.7L201.85 1778.7zM396.71 -58.8L461.67 -21.3L461.67 53.7L396.71 91.2L331.76 53.7L331.76 -21.3zM461.67 953.7L526.62 991.2L526.62 1066.2L461.67 1103.7L396.71 1066.2L396.71 991.2zM461.67 1178.7L526.62 1216.2L526.62 1291.2L461.67 1328.7L396.71 1291.2L396.71 1216.2zM461.67 1853.7L526.62 1891.2L526.62 1966.2L461.67 2003.7L396.71 1966.2L396.71 1891.2zM591.57 503.7L656.53 541.2L656.53 616.2L591.57 653.7L526.62 616.2L526.62 541.2zM526.62 616.2L591.57 653.7L591.57 728.7L526.62 766.2L461.67 728.7L461.67 653.7zM526.62 841.2L591.57 878.7L591.57 953.7L526.62 991.2L461.67 953.7L461.67 878.7zM526.62 1066.2L591.57 1103.7L591.57 1178.7L526.62 1216.2L461.67 1178.7L461.67 1103.7zM591.57 1628.7L656.53 1666.2L656.53 1741.2L591.57 1778.7L526.62 1741.2L526.62 1666.2zM526.62 1741.2L591.57 1778.7L591.57 1853.7L526.62 1891.2L461.67 1853.7L461.67 1778.7zM721.48 53.7L786.44 91.2L786.44 166.2L721.48 203.7L656.53 166.2L656.53 91.2zM656.53 841.2L721.48 878.7L721.48 953.7L656.53 991.2L591.57 953.7L591.57 878.7zM721.48 953.7L786.44 991.2L786.44 1066.2L721.48 1103.7L656.53 1066.2L656.53 991.2zM721.48 1178.7L786.44 1216.2L786.44 1291.2L721.48 1328.7L656.53 1291.2L656.53 1216.2zM656.53 1291.2L721.48 1328.7L721.48 1403.7L656.53 1441.2L591.57 1403.7L591.57 1328.7zM656.53 1741.2L721.48 1778.7L721.48 1853.7L656.53 1891.2L591.57 1853.7L591.57 1778.7zM786.43 -58.8L851.39 -21.3L851.39 53.7L786.43 91.2L721.48 53.7L721.48 -21.3zM851.39 278.7L916.34 316.2L916.34 391.2L851.39 428.7L786.43 391.2L786.43 316.2zM851.39 503.7L916.34 541.2L916.34 616.2L851.39 653.7L786.43 616.2L786.43 541.2zM786.43 616.2L851.39 653.7L851.39 728.7L786.43 766.2L721.48 728.7L721.48 653.7zM851.39 728.7L916.34 766.2L916.34 841.2L851.39 878.7L786.43 841.2L786.43 766.2zM851.39 1178.7L916.34 1216.2L916.34 1291.2L851.39 1328.7L786.43 1291.2L786.43 1216.2zM786.43 1291.2L851.39 1328.7L851.39 1403.7L786.43 1441.2L721.48 1403.7L721.48 1328.7zM981.3 728.7L1046.25 766.2L1046.25 841.2L981.3 878.7L916.34 841.2L916.34 766.2zM981.3 1178.7L1046.25 1216.2L1046.25 1291.2L981.3 1328.7L916.34 1291.2L916.34 1216.2zM916.34 1741.2L981.3 1778.7L981.3 1853.7L916.34 1891.2L851.39 1853.7L851.39 1778.7zM1046.25 166.2L1111.2 203.7L1111.2 278.7L1046.25 316.2L981.3 278.7L981.3 203.7zM1111.2 1178.7L1176.16 1216.2L1176.16 1291.2L1111.2 1328.7L1046.25 1291.2L1046.25 1216.2zM1046.25 1291.2L1111.2 1328.7L1111.2 1403.7L1046.25 1441.2L981.3 1403.7L981.3 1328.7zM1111.2 1403.7L1176.16 1441.2L1176.16 1516.2L1111.2 1553.7L1046.25 1516.2L1046.25 1441.2zM1176.16 -58.8L1241.11 -21.3L1241.11 53.7L1176.16 91.2L1111.2 53.7L1111.2 -21.3zM1241.11 53.7L1306.06 91.2L1306.06 166.2L1241.11 203.7L1176.16 166.2L1176.16 91.2zM1176.16 1066.2L1241.11 1103.7L1241.11 1178.7L1176.16 1216.2L1111.2 1178.7L1111.2 1103.7zM1241.11 1178.7L1306.06 1216.2L1306.06 1291.2L1241.11 1328.7L1176.16 1291.2L1176.16 1216.2zM1241.11 1403.7L1306.06 1441.2L1306.06 1516.2L1241.11 1553.7L1176.16 1516.2L1176.16 1441.2zM1176.16 1516.2L1241.11 1553.7L1241.11 1628.7L1176.16 1666.2L1111.2 1628.7L1111.2 1553.7zM1306.07 -58.8L1371.02 -21.3L1371.02 53.7L1306.07 91.2L1241.11 53.7L1241.11 -21.3zM1371.02 53.7L1435.97 91.2L1435.97 166.2L1371.02 203.7L1306.07 166.2L1306.07 91.2zM1306.07 166.2L1371.02 203.7L1371.02 278.7L1306.07 316.2L1241.11 278.7L1241.11 203.7zM1306.07 391.2L1371.02 428.7L1371.02 503.7L1306.07 541.2L1241.11 503.7L1241.11 428.7zM1306.07 616.2L1371.02 653.7L1371.02 728.7L1306.07 766.2L1241.11 728.7L1241.11 653.7zM1371.02 728.7L1435.97 766.2L1435.97 841.2L1371.02 878.7L1306.07 841.2L1306.07 766.2zM1371.02 953.7L1435.97 991.2L1435.97 1066.2L1371.02 1103.7L1306.07 1066.2L1306.07 991.2zM1371.02 1178.7L1435.97 1216.2L1435.97 1291.2L1371.02 1328.7L1306.07 1291.2L1306.07 1216.2zM1306.07 1291.2L1371.02 1328.7L1371.02 1403.7L1306.07 1441.2L1241.11 1403.7L1241.11 1328.7zM1306.07 1516.2L1371.02 1553.7L1371.02 1628.7L1306.07 1666.2L1241.11 1628.7L1241.11 1553.7zM1371.02 1628.7L1435.97 1666.2L1435.97 1741.2L1371.02 1778.7L1306.07 1741.2L1306.07 1666.2zM1435.97 -58.8L1500.93 -21.3L1500.93 53.7L1435.97 91.2L1371.02 53.7L1371.02 -21.3zM1435.97 166.2L1500.93 203.7L1500.93 278.7L1435.97 316.2L1371.02 278.7L1371.02 203.7zM1500.93 278.7L1565.88 316.2L1565.88 391.2L1500.93 428.7L1435.97 391.2L1435.97 316.2zM1500.93 728.7L1565.88 766.2L1565.88 841.2L1500.93 878.7L1435.97 841.2L1435.97 766.2zM1435.97 841.2L1500.93 878.7L1500.93 953.7L1435.97 991.2L1371.02 953.7L1371.02 878.7zM1435.97 1066.2L1500.93 1103.7L1500.93 1178.7L1435.97 1216.2L1371.02 1178.7L1371.02 1103.7zM1500.93 1628.7L1565.88 1666.2L1565.88 1741.2L1500.93 1778.7L1435.97 1741.2L1435.97 1666.2zM1435.97 1741.2L1500.93 1778.7L1500.93 1853.7L1435.97 1891.2L1371.02 1853.7L1371.02 1778.7zM1500.93 1853.7L1565.88 1891.2L1565.88 1966.2L1500.93 2003.7L1435.97 1966.2L1435.97 1891.2zM1435.97 1966.2L1500.93 2003.7L1500.93 2078.7L1435.97 2116.2L1371.02 2078.7L1371.02 2003.7z" stroke="rgba(25, 224, 163, 1)" stroke-width="2"></path><path d="M64.44 278.7 a7.5 7.5 0 1 0 15 0 a7.5 7.5 0 1 0 -15 0zM129.4 316.2 a7.5 7.5 0 1 0 15 0 a7.5 7.5 0 1 0 -15 0zM129.4 391.2 a7.5 7.5 0 1 0 15 0 a7.5 7.5 0 1 0 -15 0zM64.44 428.7 a7.5 7.5 0 1 0 15 0 a7.5 7.5 0 1 0 -15 0zM-0.51 391.2 a7.5 7.5 0 1 0 15 0 a7.5 7.5 0 1 0 -15 0zM-0.51 316.2 a7.5 7.5 0 1 0 15 0 a7.5 7.5 0 1 0 -15 0zM-0.51 616.2 a7.5 7.5 0 1 0 15 0 a7.5 7.5 0 1 0 -15 0zM64.44 653.7 a7.5 7.5 0 1 0 15 0 a7.5 7.5 0 1 0 -15 0zM64.44 728.7 a7.5 7.5 0 1 0 15 0 a7.5 7.5 0 1 0 -15 0zM-0.51 766.2 a7.5 7.5 0 1 0 15 0 a7.5 7.5 0 1 0 -15 0zM-65.46 728.7 a7.5 7.5 0 1 0 15 0 a7.5 7.5 0 1 0 -15 0zM-65.46 653.7 a7.5 7.5 0 1 0 15 0 a7.5 7.5 0 1 0 -15 0zM-0.51 1066.2 a7.5 7.5 0 1 0 15 0 a7.5 7.5 0 1 0 -15 0zM64.44 1103.7 a7.5 7.5 0 1 0 15 0 a7.5 7.5 0 1 0 -15 0zM64.44 1178.7 a7.5 7.5 0 1 0 15 0 a7.5 7.5 0 1 0 -15 0zM-0.51 1216.2 a7.5 7.5 0 1 0 15 0 a7.5 7.5 0 1 0 -15 0zM-65.46 1178.7 a7.5 7.5 0 1 0 15 0 a7.5 7.5 0 1 0 -15 0zM-65.46 1103.7 a7.5 7.5 0 1 0 15 0 a7.5 7.5 0 1 0 -15 0zM64.44 1403.7 a7.5 7.5 0 1 0 15 0 a7.5 7.5 0 1 0 -15 0zM129.4 1441.2 a7.5 7.5 0 1 0 15 0 a7.5 7.5 0 1 0 -15 0zM129.4 1516.2 a7.5 7.5 0 1 0 15 0 a7.5 7.5 0 1 0 -15 0zM64.44 1553.7 a7.5 7.5 0 1 0 15 0 a7.5 7.5 0 1 0 -15 0zM-0.51 1516.2 a7.5 7.5 0 1 0 15 0 a7.5 7.5 0 1 0 -15 0zM-0.51 1441.2 a7.5 7.5 0 1 0 15 0 a7.5 7.5 0 1 0 -15 0zM-0.51 1741.2 a7.5 7.5 0 1 0 15 0 a7.5 7.5 0 1 0 -15 0zM64.44 1778.7 a7.5 7.5 0 1 0 15 0 a7.5 7.5 0 1 0 -15 0zM64.44 1853.7 a7.5 7.5 0 1 0 15 0 a7.5 7.5 0 1 0 -15 0zM-0.51 1891.2 a7.5 7.5 0 1 0 15 0 a7.5 7.5 0 1 0 -15 0zM-65.46 1853.7 a7.5 7.5 0 1 0 15 0 a7.5 7.5 0 1 0 -15 0zM-65.46 1778.7 a7.5 7.5 0 1 0 15 0 a7.5 7.5 0 1 0 -15 0zM129.4 -58.8 a7.5 7.5 0 1 0 15 0 a7.5 7.5 0 1 0 -15 0zM194.35 -21.3 a7.5 7.5 0 1 0 15 0 a7.5 7.5 0 1 0 -15 0zM194.35 53.7 a7.5 7.5 0 1 0 15 0 a7.5 7.5 0 1 0 -15 0zM129.4 91.2 a7.5 7.5 0 1 0 15 0 a7.5 7.5 0 1 0 -15 0zM64.44 53.7 a7.5 7.5 0 1 0 15 0 a7.5 7.5 0 1 0 -15 0zM64.44 -21.3 a7.5 7.5 0 1 0 15 0 a7.5 7.5 0 1 0 -15 0zM194.35 278.7 a7.5 7.5 0 1 0 15 0 a7.5 7.5 0 1 0 -15 0zM259.31 316.2 a7.5 7.5 0 1 0 15 0 a7.5 7.5 0 1 0 -15 0zM259.31 391.2 a7.5 7.5 0 1 0 15 0 a7.5 7.5 0 1 0 -15 0zM194.35 428.7 a7.5 7.5 0 1 0 15 0 a7.5 7.5 0 1 0 -15 0zM194.35 503.7 a7.5 7.5 0 1 0 15 0 a7.5 7.5 0 1 0 -15 0zM129.4 541.2 a7.5 7.5 0 1 0 15 0 a7.5 7.5 0 1 0 -15 0zM64.44 503.7 a7.5 7.5 0 1 0 15 0 a7.5 7.5 0 1 0 -15 0zM259.31 541.2 a7.5 7.5 0 1 0 15 0 a7.5 7.5 0 1 0 -15 0zM259.31 616.2 a7.5 7.5 0 1 0 15 0 a7.5 7.5 0 1 0 -15 0zM194.35 653.7 a7.5 7.5 0 1 0 15 0 a7.5 7.5 0 1 0 -15 0zM129.4 616.2 a7.5 7.5 0 1 0 15 0 a7.5 7.5 0 1 0 -15 0zM194.35 728.7 a7.5 7.5 0 1 0 15 0 a7.5 7.5 0 1 0 -15 0zM129.4 766.2 a7.5 7.5 0 1 0 15 0 a7.5 7.5 0 1 0 -15 0zM194.35 953.7 a7.5 7.5 0 1 0 15 0 a7.5 7.5 0 1 0 -15 0zM259.31 991.2 a7.5 7.5 0 1 0 15 0 a7.5 7.5 0 1 0 -15 0zM259.31 1066.2 a7.5 7.5 0 1 0 15 0 a7.5 7.5 0 1 0 -15 0zM194.35 1103.7 a7.5 7.5 0 1 0 15 0 a7.5 7.5 0 1 0 -15 0zM129.4 1066.2 a7.5 7.5 0 1 0 15 0 a7.5 7.5 0 1 0 -15 0zM129.4 991.2 a7.5 7.5 0 1 0 15 0 a7.5 7.5 0 1 0 -15 0zM194.35 1178.7 a7.5 7.5 0 1 0 15 0 a7.5 7.5 0 1 0 -15 0zM259.31 1216.2 a7.5 7.5 0 1 0 15 0 a7.5 7.5 0 1 0 -15 0zM259.31 1291.2 a7.5 7.5 0 1 0 15 0 a7.5 7.5 0 1 0 -15 0zM194.35 1328.7 a7.5 7.5 0 1 0 15 0 a7.5 7.5 0 1 0 -15 0zM129.4 1291.2 a7.5 7.5 0 1 0 15 0 a7.5 7.5 0 1 0 -15 0zM129.4 1216.2 a7.5 7.5 0 1 0 15 0 a7.5 7.5 0 1 0 -15 0zM194.35 1403.7 a7.5 7.5 0 1 0 15 0 a7.5 7.5 0 1 0 -15 0zM259.31 1441.2 a7.5 7.5 0 1 0 15 0 a7.5 7.5 0 1 0 -15 0zM259.31 1516.2 a7.5 7.5 0 1 0 15 0 a7.5 7.5 0 1 0 -15 0zM194.35 1553.7 a7.5 7.5 0 1 0 15 0 a7.5 7.5 0 1 0 -15 0zM194.35 1628.7 a7.5 7.5 0 1 0 15 0 a7.5 7.5 0 1 0 -15 0zM129.4 1666.2 a7.5 7.5 0 1 0 15 0 a7.5 7.5 0 1 0 -15 0zM64.44 1628.7 a7.5 7.5 0 1 0 15 0 a7.5 7.5 0 1 0 -15 0zM324.26 53.7 a7.5 7.5 0 1 0 15 0 a7.5 7.5 0 1 0 -15 0zM389.21 91.2 a7.5 7.5 0 1 0 15 0 a7.5 7.5 0 1 0 -15 0zM389.21 166.2 a7.5 7.5 0 1 0 15 0 a7.5 7.5 0 1 0 -15 0zM324.26 203.7 a7.5 7.5 0 1 0 15 0 a7.5 7.5 0 1 0 -15 0zM259.31 166.2 a7.5 7.5 0 1 0 15 0 a7.5 7.5 0 1 0 -15 0zM259.31 91.2 a7.5 7.5 0 1 0 15 0 a7.5 7.5 0 1 0 -15 0zM324.26 503.7 a7.5 7.5 0 1 0 15 0 a7.5 7.5 0 1 0 -15 0zM389.21 541.2 a7.5 7.5 0 1 0 15 0 a7.5 7.5 0 1 0 -15 0zM389.21 616.2 a7.5 7.5 0 1 0 15 0 a7.5 7.5 0 1 0 -15 0zM324.26 653.7 a7.5 7.5 0 1 0 15 0 a7.5 7.5 0 1 0 -15 0zM324.26 1103.7 a7.5 7.5 0 1 0 15 0 a7.5 7.5 0 1 0 -15 0zM324.26 1178.7 a7.5 7.5 0 1 0 15 0 a7.5 7.5 0 1 0 -15 0zM389.21 1216.2 a7.5 7.5 0 1 0 15 0 a7.5 7.5 0 1 0 -15 0zM389.21 1291.2 a7.5 7.5 0 1 0 15 0 a7.5 7.5 0 1 0 -15 0zM324.26 1328.7 a7.5 7.5 0 1 0 15 0 a7.5 7.5 0 1 0 -15 0zM324.26 1403.7 a7.5 7.5 0 1 0 15 0 a7.5 7.5 0 1 0 -15 0zM389.21 1441.2 a7.5 7.5 0 1 0 15 0 a7.5 7.5 0 1 0 -15 0zM389.21 1516.2 a7.5 7.5 0 1 0 15 0 a7.5 7.5 0 1 0 -15 0zM324.26 1553.7 a7.5 7.5 0 1 0 15 0 a7.5 7.5 0 1 0 -15 0zM259.31 1741.2 a7.5 7.5 0 1 0 15 0 a7.5 7.5 0 1 0 -15 0zM324.26 1778.7 a7.5 7.5 0 1 0 15 0 a7.5 7.5 0 1 0 -15 0zM324.26 1853.7 a7.5 7.5 0 1 0 15 0 a7.5 7.5 0 1 0 -15 0zM259.31 1891.2 a7.5 7.5 0 1 0 15 0 a7.5 7.5 0 1 0 -15 0zM194.35 1853.7 a7.5 7.5 0 1 0 15 0 a7.5 7.5 0 1 0 -15 0zM194.35 1778.7 a7.5 7.5 0 1 0 15 0 a7.5 7.5 0 1 0 -15 0zM389.21 -58.8 a7.5 7.5 0 1 0 15 0 a7.5 7.5 0 1 0 -15 0zM454.17 -21.3 a7.5 7.5 0 1 0 15 0 a7.5 7.5 0 1 0 -15 0zM454.17 53.7 a7.5 7.5 0 1 0 15 0 a7.5 7.5 0 1 0 -15 0zM324.26 -21.3 a7.5 7.5 0 1 0 15 0 a7.5 7.5 0 1 0 -15 0zM454.17 953.7 a7.5 7.5 0 1 0 15 0 a7.5 7.5 0 1 0 -15 0zM519.12 991.2 a7.5 7.5 0 1 0 15 0 a7.5 7.5 0 1 0 -15 0zM519.12 1066.2 a7.5 7.5 0 1 0 15 0 a7.5 7.5 0 1 0 -15 0zM454.17 1103.7 a7.5 7.5 0 1 0 15 0 a7.5 7.5 0 1 0 -15 0zM389.21 1066.2 a7.5 7.5 0 1 0 15 0 a7.5 7.5 0 1 0 -15 0zM389.21 991.2 a7.5 7.5 0 1 0 15 0 a7.5 7.5 0 1 0 -15 0zM454.17 1178.7 a7.5 7.5 0 1 0 15 0 a7.5 7.5 0 1 0 -15 0zM519.12 1216.2 a7.5 7.5 0 1 0 15 0 a7.5 7.5 0 1 0 -15 0zM519.12 1291.2 a7.5 7.5 0 1 0 15 0 a7.5 7.5 0 1 0 -15 0zM454.17 1328.7 a7.5 7.5 0 1 0 15 0 a7.5 7.5 0 1 0 -15 0zM454.17 1853.7 a7.5 7.5 0 1 0 15 0 a7.5 7.5 0 1 0 -15 0zM519.12 1891.2 a7.5 7.5 0 1 0 15 0 a7.5 7.5 0 1 0 -15 0zM519.12 1966.2 a7.5 7.5 0 1 0 15 0 a7.5 7.5 0 1 0 -15 0zM454.17 2003.7 a7.5 7.5 0 1 0 15 0 a7.5 7.5 0 1 0 -15 0zM389.21 1966.2 a7.5 7.5 0 1 0 15 0 a7.5 7.5 0 1 0 -15 0zM389.21 1891.2 a7.5 7.5 0 1 0 15 0 a7.5 7.5 0 1 0 -15 0zM584.07 503.7 a7.5 7.5 0 1 0 15 0 a7.5 7.5 0 1 0 -15 0zM649.03 541.2 a7.5 7.5 0 1 0 15 0 a7.5 7.5 0 1 0 -15 0zM649.03 616.2 a7.5 7.5 0 1 0 15 0 a7.5 7.5 0 1 0 -15 0zM584.07 653.7 a7.5 7.5 0 1 0 15 0 a7.5 7.5 0 1 0 -15 0zM519.12 616.2 a7.5 7.5 0 1 0 15 0 a7.5 7.5 0 1 0 -15 0zM519.12 541.2 a7.5 7.5 0 1 0 15 0 a7.5 7.5 0 1 0 -15 0zM584.07 728.7 a7.5 7.5 0 1 0 15 0 a7.5 7.5 0 1 0 -15 0zM519.12 766.2 a7.5 7.5 0 1 0 15 0 a7.5 7.5 0 1 0 -15 0zM454.17 728.7 a7.5 7.5 0 1 0 15 0 a7.5 7.5 0 1 0 -15 0zM454.17 653.7 a7.5 7.5 0 1 0 15 0 a7.5 7.5 0 1 0 -15 0zM519.12 841.2 a7.5 7.5 0 1 0 15 0 a7.5 7.5 0 1 0 -15 0zM584.07 878.7 a7.5 7.5 0 1 0 15 0 a7.5 7.5 0 1 0 -15 0zM584.07 953.7 a7.5 7.5 0 1 0 15 0 a7.5 7.5 0 1 0 -15 0zM454.17 878.7 a7.5 7.5 0 1 0 15 0 a7.5 7.5 0 1 0 -15 0zM584.07 1103.7 a7.5 7.5 0 1 0 15 0 a7.5 7.5 0 1 0 -15 0zM584.07 1178.7 a7.5 7.5 0 1 0 15 0 a7.5 7.5 0 1 0 -15 0zM584.07 1628.7 a7.5 7.5 0 1 0 15 0 a7.5 7.5 0 1 0 -15 0zM649.03 1666.2 a7.5 7.5 0 1 0 15 0 a7.5 7.5 0 1 0 -15 0zM649.03 1741.2 a7.5 7.5 0 1 0 15 0 a7.5 7.5 0 1 0 -15 0zM584.07 1778.7 a7.5 7.5 0 1 0 15 0 a7.5 7.5 0 1 0 -15 0zM519.12 1741.2 a7.5 7.5 0 1 0 15 0 a7.5 7.5 0 1 0 -15 0zM519.12 1666.2 a7.5 7.5 0 1 0 15 0 a7.5 7.5 0 1 0 -15 0zM584.07 1853.7 a7.5 7.5 0 1 0 15 0 a7.5 7.5 0 1 0 -15 0zM454.17 1778.7 a7.5 7.5 0 1 0 15 0 a7.5 7.5 0 1 0 -15 0zM713.98 53.7 a7.5 7.5 0 1 0 15 0 a7.5 7.5 0 1 0 -15 0zM778.94 91.2 a7.5 7.5 0 1 0 15 0 a7.5 7.5 0 1 0 -15 0zM778.94 166.2 a7.5 7.5 0 1 0 15 0 a7.5 7.5 0 1 0 -15 0zM713.98 203.7 a7.5 7.5 0 1 0 15 0 a7.5 7.5 0 1 0 -15 0zM649.03 166.2 a7.5 7.5 0 1 0 15 0 a7.5 7.5 0 1 0 -15 0zM649.03 91.2 a7.5 7.5 0 1 0 15 0 a7.5 7.5 0 1 0 -15 0zM649.03 841.2 a7.5 7.5 0 1 0 15 0 a7.5 7.5 0 1 0 -15 0zM713.98 878.7 a7.5 7.5 0 1 0 15 0 a7.5 7.5 0 1 0 -15 0zM713.98 953.7 a7.5 7.5 0 1 0 15 0 a7.5 7.5 0 1 0 -15 0zM649.03 991.2 a7.5 7.5 0 1 0 15 0 a7.5 7.5 0 1 0 -15 0zM778.94 991.2 a7.5 7.5 0 1 0 15 0 a7.5 7.5 0 1 0 -15 0zM778.94 1066.2 a7.5 7.5 0 1 0 15 0 a7.5 7.5 0 1 0 -15 0zM713.98 1103.7 a7.5 7.5 0 1 0 15 0 a7.5 7.5 0 1 0 -15 0zM649.03 1066.2 a7.5 7.5 0 1 0 15 0 a7.5 7.5 0 1 0 -15 0zM713.98 1178.7 a7.5 7.5 0 1 0 15 0 a7.5 7.5 0 1 0 -15 0zM778.94 1216.2 a7.5 7.5 0 1 0 15 0 a7.5 7.5 0 1 0 -15 0zM778.94 1291.2 a7.5 7.5 0 1 0 15 0 a7.5 7.5 0 1 0 -15 0zM713.98 1328.7 a7.5 7.5 0 1 0 15 0 a7.5 7.5 0 1 0 -15 0zM649.03 1291.2 a7.5 7.5 0 1 0 15 0 a7.5 7.5 0 1 0 -15 0zM649.03 1216.2 a7.5 7.5 0 1 0 15 0 a7.5 7.5 0 1 0 -15 0zM713.98 1403.7 a7.5 7.5 0 1 0 15 0 a7.5 7.5 0 1 0 -15 0zM649.03 1441.2 a7.5 7.5 0 1 0 15 0 a7.5 7.5 0 1 0 -15 0zM584.07 1403.7 a7.5 7.5 0 1 0 15 0 a7.5 7.5 0 1 0 -15 0zM584.07 1328.7 a7.5 7.5 0 1 0 15 0 a7.5 7.5 0 1 0 -15 0zM713.98 1778.7 a7.5 7.5 0 1 0 15 0 a7.5 7.5 0 1 0 -15 0zM713.98 1853.7 a7.5 7.5 0 1 0 15 0 a7.5 7.5 0 1 0 -15 0zM649.03 1891.2 a7.5 7.5 0 1 0 15 0 a7.5 7.5 0 1 0 -15 0zM778.93 -58.8 a7.5 7.5 0 1 0 15 0 a7.5 7.5 0 1 0 -15 0zM843.89 -21.3 a7.5 7.5 0 1 0 15 0 a7.5 7.5 0 1 0 -15 0zM843.89 53.7 a7.5 7.5 0 1 0 15 0 a7.5 7.5 0 1 0 -15 0zM778.93 91.2 a7.5 7.5 0 1 0 15 0 a7.5 7.5 0 1 0 -15 0zM713.98 -21.3 a7.5 7.5 0 1 0 15 0 a7.5 7.5 0 1 0 -15 0zM843.89 278.7 a7.5 7.5 0 1 0 15 0 a7.5 7.5 0 1 0 -15 0zM908.84 316.2 a7.5 7.5 0 1 0 15 0 a7.5 7.5 0 1 0 -15 0zM908.84 391.2 a7.5 7.5 0 1 0 15 0 a7.5 7.5 0 1 0 -15 0zM843.89 428.7 a7.5 7.5 0 1 0 15 0 a7.5 7.5 0 1 0 -15 0zM778.93 391.2 a7.5 7.5 0 1 0 15 0 a7.5 7.5 0 1 0 -15 0zM778.93 316.2 a7.5 7.5 0 1 0 15 0 a7.5 7.5 0 1 0 -15 0zM843.89 503.7 a7.5 7.5 0 1 0 15 0 a7.5 7.5 0 1 0 -15 0zM908.84 541.2 a7.5 7.5 0 1 0 15 0 a7.5 7.5 0 1 0 -15 0zM908.84 616.2 a7.5 7.5 0 1 0 15 0 a7.5 7.5 0 1 0 -15 0zM843.89 653.7 a7.5 7.5 0 1 0 15 0 a7.5 7.5 0 1 0 -15 0zM778.93 616.2 a7.5 7.5 0 1 0 15 0 a7.5 7.5 0 1 0 -15 0zM778.93 541.2 a7.5 7.5 0 1 0 15 0 a7.5 7.5 0 1 0 -15 0zM843.89 728.7 a7.5 7.5 0 1 0 15 0 a7.5 7.5 0 1 0 -15 0zM778.93 766.2 a7.5 7.5 0 1 0 15 0 a7.5 7.5 0 1 0 -15 0zM713.98 728.7 a7.5 7.5 0 1 0 15 0 a7.5 7.5 0 1 0 -15 0zM713.98 653.7 a7.5 7.5 0 1 0 15 0 a7.5 7.5 0 1 0 -15 0zM908.84 766.2 a7.5 7.5 0 1 0 15 0 a7.5 7.5 0 1 0 -15 0zM908.84 841.2 a7.5 7.5 0 1 0 15 0 a7.5 7.5 0 1 0 -15 0zM843.89 878.7 a7.5 7.5 0 1 0 15 0 a7.5 7.5 0 1 0 -15 0zM778.93 841.2 a7.5 7.5 0 1 0 15 0 a7.5 7.5 0 1 0 -15 0zM843.89 1178.7 a7.5 7.5 0 1 0 15 0 a7.5 7.5 0 1 0 -15 0zM908.84 1216.2 a7.5 7.5 0 1 0 15 0 a7.5 7.5 0 1 0 -15 0zM908.84 1291.2 a7.5 7.5 0 1 0 15 0 a7.5 7.5 0 1 0 -15 0zM843.89 1328.7 a7.5 7.5 0 1 0 15 0 a7.5 7.5 0 1 0 -15 0zM778.93 1291.2 a7.5 7.5 0 1 0 15 0 a7.5 7.5 0 1 0 -15 0zM778.93 1216.2 a7.5 7.5 0 1 0 15 0 a7.5 7.5 0 1 0 -15 0zM843.89 1403.7 a7.5 7.5 0 1 0 15 0 a7.5 7.5 0 1 0 -15 0zM778.93 1441.2 a7.5 7.5 0 1 0 15 0 a7.5 7.5 0 1 0 -15 0zM973.8 728.7 a7.5 7.5 0 1 0 15 0 a7.5 7.5 0 1 0 -15 0zM1038.75 766.2 a7.5 7.5 0 1 0 15 0 a7.5 7.5 0 1 0 -15 0zM1038.75 841.2 a7.5 7.5 0 1 0 15 0 a7.5 7.5 0 1 0 -15 0zM973.8 878.7 a7.5 7.5 0 1 0 15 0 a7.5 7.5 0 1 0 -15 0zM973.8 1178.7 a7.5 7.5 0 1 0 15 0 a7.5 7.5 0 1 0 -15 0zM1038.75 1216.2 a7.5 7.5 0 1 0 15 0 a7.5 7.5 0 1 0 -15 0zM1038.75 1291.2 a7.5 7.5 0 1 0 15 0 a7.5 7.5 0 1 0 -15 0zM973.8 1328.7 a7.5 7.5 0 1 0 15 0 a7.5 7.5 0 1 0 -15 0zM908.84 1741.2 a7.5 7.5 0 1 0 15 0 a7.5 7.5 0 1 0 -15 0zM973.8 1778.7 a7.5 7.5 0 1 0 15 0 a7.5 7.5 0 1 0 -15 0zM973.8 1853.7 a7.5 7.5 0 1 0 15 0 a7.5 7.5 0 1 0 -15 0zM908.84 1891.2 a7.5 7.5 0 1 0 15 0 a7.5 7.5 0 1 0 -15 0zM843.89 1853.7 a7.5 7.5 0 1 0 15 0 a7.5 7.5 0 1 0 -15 0zM843.89 1778.7 a7.5 7.5 0 1 0 15 0 a7.5 7.5 0 1 0 -15 0zM1038.75 166.2 a7.5 7.5 0 1 0 15 0 a7.5 7.5 0 1 0 -15 0zM1103.7 203.7 a7.5 7.5 0 1 0 15 0 a7.5 7.5 0 1 0 -15 0zM1103.7 278.7 a7.5 7.5 0 1 0 15 0 a7.5 7.5 0 1 0 -15 0zM1038.75 316.2 a7.5 7.5 0 1 0 15 0 a7.5 7.5 0 1 0 -15 0zM973.8 278.7 a7.5 7.5 0 1 0 15 0 a7.5 7.5 0 1 0 -15 0zM973.8 203.7 a7.5 7.5 0 1 0 15 0 a7.5 7.5 0 1 0 -15 0zM1103.7 1178.7 a7.5 7.5 0 1 0 15 0 a7.5 7.5 0 1 0 -15 0zM1168.66 1216.2 a7.5 7.5 0 1 0 15 0 a7.5 7.5 0 1 0 -15 0zM1168.66 1291.2 a7.5 7.5 0 1 0 15 0 a7.5 7.5 0 1 0 -15 0zM1103.7 1328.7 a7.5 7.5 0 1 0 15 0 a7.5 7.5 0 1 0 -15 0zM1103.7 1403.7 a7.5 7.5 0 1 0 15 0 a7.5 7.5 0 1 0 -15 0zM1038.75 1441.2 a7.5 7.5 0 1 0 15 0 a7.5 7.5 0 1 0 -15 0zM973.8 1403.7 a7.5 7.5 0 1 0 15 0 a7.5 7.5 0 1 0 -15 0zM1168.66 1441.2 a7.5 7.5 0 1 0 15 0 a7.5 7.5 0 1 0 -15 0zM1168.66 1516.2 a7.5 7.5 0 1 0 15 0 a7.5 7.5 0 1 0 -15 0zM1103.7 1553.7 a7.5 7.5 0 1 0 15 0 a7.5 7.5 0 1 0 -15 0zM1038.75 1516.2 a7.5 7.5 0 1 0 15 0 a7.5 7.5 0 1 0 -15 0zM1168.66 -58.8 a7.5 7.5 0 1 0 15 0 a7.5 7.5 0 1 0 -15 0zM1233.61 -21.3 a7.5 7.5 0 1 0 15 0 a7.5 7.5 0 1 0 -15 0zM1233.61 53.7 a7.5 7.5 0 1 0 15 0 a7.5 7.5 0 1 0 -15 0zM1168.66 91.2 a7.5 7.5 0 1 0 15 0 a7.5 7.5 0 1 0 -15 0zM1103.7 53.7 a7.5 7.5 0 1 0 15 0 a7.5 7.5 0 1 0 -15 0zM1103.7 -21.3 a7.5 7.5 0 1 0 15 0 a7.5 7.5 0 1 0 -15 0zM1298.56 91.2 a7.5 7.5 0 1 0 15 0 a7.5 7.5 0 1 0 -15 0zM1298.56 166.2 a7.5 7.5 0 1 0 15 0 a7.5 7.5 0 1 0 -15 0zM1233.61 203.7 a7.5 7.5 0 1 0 15 0 a7.5 7.5 0 1 0 -15 0zM1168.66 166.2 a7.5 7.5 0 1 0 15 0 a7.5 7.5 0 1 0 -15 0zM1168.66 1066.2 a7.5 7.5 0 1 0 15 0 a7.5 7.5 0 1 0 -15 0zM1233.61 1103.7 a7.5 7.5 0 1 0 15 0 a7.5 7.5 0 1 0 -15 0zM1233.61 1178.7 a7.5 7.5 0 1 0 15 0 a7.5 7.5 0 1 0 -15 0zM1103.7 1103.7 a7.5 7.5 0 1 0 15 0 a7.5 7.5 0 1 0 -15 0zM1298.56 1216.2 a7.5 7.5 0 1 0 15 0 a7.5 7.5 0 1 0 -15 0zM1298.56 1291.2 a7.5 7.5 0 1 0 15 0 a7.5 7.5 0 1 0 -15 0zM1233.61 1328.7 a7.5 7.5 0 1 0 15 0 a7.5 7.5 0 1 0 -15 0zM1233.61 1403.7 a7.5 7.5 0 1 0 15 0 a7.5 7.5 0 1 0 -15 0zM1298.56 1441.2 a7.5 7.5 0 1 0 15 0 a7.5 7.5 0 1 0 -15 0zM1298.56 1516.2 a7.5 7.5 0 1 0 15 0 a7.5 7.5 0 1 0 -15 0zM1233.61 1553.7 a7.5 7.5 0 1 0 15 0 a7.5 7.5 0 1 0 -15 0zM1233.61 1628.7 a7.5 7.5 0 1 0 15 0 a7.5 7.5 0 1 0 -15 0zM1168.66 1666.2 a7.5 7.5 0 1 0 15 0 a7.5 7.5 0 1 0 -15 0zM1103.7 1628.7 a7.5 7.5 0 1 0 15 0 a7.5 7.5 0 1 0 -15 0zM1298.57 -58.8 a7.5 7.5 0 1 0 15 0 a7.5 7.5 0 1 0 -15 0zM1363.52 -21.3 a7.5 7.5 0 1 0 15 0 a7.5 7.5 0 1 0 -15 0zM1363.52 53.7 a7.5 7.5 0 1 0 15 0 a7.5 7.5 0 1 0 -15 0zM1298.57 91.2 a7.5 7.5 0 1 0 15 0 a7.5 7.5 0 1 0 -15 0zM1428.47 91.2 a7.5 7.5 0 1 0 15 0 a7.5 7.5 0 1 0 -15 0zM1428.47 166.2 a7.5 7.5 0 1 0 15 0 a7.5 7.5 0 1 0 -15 0zM1363.52 203.7 a7.5 7.5 0 1 0 15 0 a7.5 7.5 0 1 0 -15 0zM1298.57 166.2 a7.5 7.5 0 1 0 15 0 a7.5 7.5 0 1 0 -15 0zM1363.52 278.7 a7.5 7.5 0 1 0 15 0 a7.5 7.5 0 1 0 -15 0zM1298.57 316.2 a7.5 7.5 0 1 0 15 0 a7.5 7.5 0 1 0 -15 0zM1233.61 278.7 a7.5 7.5 0 1 0 15 0 a7.5 7.5 0 1 0 -15 0zM1298.57 391.2 a7.5 7.5 0 1 0 15 0 a7.5 7.5 0 1 0 -15 0zM1363.52 428.7 a7.5 7.5 0 1 0 15 0 a7.5 7.5 0 1 0 -15 0zM1363.52 503.7 a7.5 7.5 0 1 0 15 0 a7.5 7.5 0 1 0 -15 0zM1298.57 541.2 a7.5 7.5 0 1 0 15 0 a7.5 7.5 0 1 0 -15 0zM1233.61 503.7 a7.5 7.5 0 1 0 15 0 a7.5 7.5 0 1 0 -15 0zM1233.61 428.7 a7.5 7.5 0 1 0 15 0 a7.5 7.5 0 1 0 -15 0zM1298.57 616.2 a7.5 7.5 0 1 0 15 0 a7.5 7.5 0 1 0 -15 0zM1363.52 653.7 a7.5 7.5 0 1 0 15 0 a7.5 7.5 0 1 0 -15 0zM1363.52 728.7 a7.5 7.5 0 1 0 15 0 a7.5 7.5 0 1 0 -15 0zM1298.57 766.2 a7.5 7.5 0 1 0 15 0 a7.5 7.5 0 1 0 -15 0zM1233.61 728.7 a7.5 7.5 0 1 0 15 0 a7.5 7.5 0 1 0 -15 0zM1233.61 653.7 a7.5 7.5 0 1 0 15 0 a7.5 7.5 0 1 0 -15 0zM1428.47 766.2 a7.5 7.5 0 1 0 15 0 a7.5 7.5 0 1 0 -15 0zM1428.47 841.2 a7.5 7.5 0 1 0 15 0 a7.5 7.5 0 1 0 -15 0zM1363.52 878.7 a7.5 7.5 0 1 0 15 0 a7.5 7.5 0 1 0 -15 0zM1298.57 841.2 a7.5 7.5 0 1 0 15 0 a7.5 7.5 0 1 0 -15 0zM1363.52 953.7 a7.5 7.5 0 1 0 15 0 a7.5 7.5 0 1 0 -15 0zM1428.47 991.2 a7.5 7.5 0 1 0 15 0 a7.5 7.5 0 1 0 -15 0zM1428.47 1066.2 a7.5 7.5 0 1 0 15 0 a7.5 7.5 0 1 0 -15 0zM1363.52 1103.7 a7.5 7.5 0 1 0 15 0 a7.5 7.5 0 1 0 -15 0zM1298.57 1066.2 a7.5 7.5 0 1 0 15 0 a7.5 7.5 0 1 0 -15 0zM1298.57 991.2 a7.5 7.5 0 1 0 15 0 a7.5 7.5 0 1 0 -15 0zM1363.52 1178.7 a7.5 7.5 0 1 0 15 0 a7.5 7.5 0 1 0 -15 0zM1428.47 1216.2 a7.5 7.5 0 1 0 15 0 a7.5 7.5 0 1 0 -15 0zM1428.47 1291.2 a7.5 7.5 0 1 0 15 0 a7.5 7.5 0 1 0 -15 0zM1363.52 1328.7 a7.5 7.5 0 1 0 15 0 a7.5 7.5 0 1 0 -15 0zM1298.57 1291.2 a7.5 7.5 0 1 0 15 0 a7.5 7.5 0 1 0 -15 0zM1298.57 1216.2 a7.5 7.5 0 1 0 15 0 a7.5 7.5 0 1 0 -15 0zM1363.52 1403.7 a7.5 7.5 0 1 0 15 0 a7.5 7.5 0 1 0 -15 0zM1298.57 1441.2 a7.5 7.5 0 1 0 15 0 a7.5 7.5 0 1 0 -15 0zM1298.57 1516.2 a7.5 7.5 0 1 0 15 0 a7.5 7.5 0 1 0 -15 0zM1363.52 1553.7 a7.5 7.5 0 1 0 15 0 a7.5 7.5 0 1 0 -15 0zM1363.52 1628.7 a7.5 7.5 0 1 0 15 0 a7.5 7.5 0 1 0 -15 0zM1298.57 1666.2 a7.5 7.5 0 1 0 15 0 a7.5 7.5 0 1 0 -15 0zM1428.47 1666.2 a7.5 7.5 0 1 0 15 0 a7.5 7.5 0 1 0 -15 0zM1428.47 1741.2 a7.5 7.5 0 1 0 15 0 a7.5 7.5 0 1 0 -15 0zM1363.52 1778.7 a7.5 7.5 0 1 0 15 0 a7.5 7.5 0 1 0 -15 0zM1298.57 1741.2 a7.5 7.5 0 1 0 15 0 a7.5 7.5 0 1 0 -15 0zM1428.47 -58.8 a7.5 7.5 0 1 0 15 0 a7.5 7.5 0 1 0 -15 0zM1493.43 -21.3 a7.5 7.5 0 1 0 15 0 a7.5 7.5 0 1 0 -15 0zM1493.43 53.7 a7.5 7.5 0 1 0 15 0 a7.5 7.5 0 1 0 -15 0zM1493.43 203.7 a7.5 7.5 0 1 0 15 0 a7.5 7.5 0 1 0 -15 0zM1493.43 278.7 a7.5 7.5 0 1 0 15 0 a7.5 7.5 0 1 0 -15 0zM1428.47 316.2 a7.5 7.5 0 1 0 15 0 a7.5 7.5 0 1 0 -15 0zM1558.38 316.2 a7.5 7.5 0 1 0 15 0 a7.5 7.5 0 1 0 -15 0zM1558.38 391.2 a7.5 7.5 0 1 0 15 0 a7.5 7.5 0 1 0 -15 0zM1493.43 428.7 a7.5 7.5 0 1 0 15 0 a7.5 7.5 0 1 0 -15 0zM1428.47 391.2 a7.5 7.5 0 1 0 15 0 a7.5 7.5 0 1 0 -15 0zM1493.43 728.7 a7.5 7.5 0 1 0 15 0 a7.5 7.5 0 1 0 -15 0zM1558.38 766.2 a7.5 7.5 0 1 0 15 0 a7.5 7.5 0 1 0 -15 0zM1558.38 841.2 a7.5 7.5 0 1 0 15 0 a7.5 7.5 0 1 0 -15 0zM1493.43 878.7 a7.5 7.5 0 1 0 15 0 a7.5 7.5 0 1 0 -15 0zM1493.43 953.7 a7.5 7.5 0 1 0 15 0 a7.5 7.5 0 1 0 -15 0zM1493.43 1103.7 a7.5 7.5 0 1 0 15 0 a7.5 7.5 0 1 0 -15 0zM1493.43 1178.7 a7.5 7.5 0 1 0 15 0 a7.5 7.5 0 1 0 -15 0zM1493.43 1628.7 a7.5 7.5 0 1 0 15 0 a7.5 7.5 0 1 0 -15 0zM1558.38 1666.2 a7.5 7.5 0 1 0 15 0 a7.5 7.5 0 1 0 -15 0zM1558.38 1741.2 a7.5 7.5 0 1 0 15 0 a7.5 7.5 0 1 0 -15 0zM1493.43 1778.7 a7.5 7.5 0 1 0 15 0 a7.5 7.5 0 1 0 -15 0zM1493.43 1853.7 a7.5 7.5 0 1 0 15 0 a7.5 7.5 0 1 0 -15 0zM1428.47 1891.2 a7.5 7.5 0 1 0 15 0 a7.5 7.5 0 1 0 -15 0zM1363.52 1853.7 a7.5 7.5 0 1 0 15 0 a7.5 7.5 0 1 0 -15 0zM1558.38 1891.2 a7.5 7.5 0 1 0 15 0 a7.5 7.5 0 1 0 -15 0zM1558.38 1966.2 a7.5 7.5 0 1 0 15 0 a7.5 7.5 0 1 0 -15 0zM1493.43 2003.7 a7.5 7.5 0 1 0 15 0 a7.5 7.5 0 1 0 -15 0zM1428.47 1966.2 a7.5 7.5 0 1 0 15 0 a7.5 7.5 0 1 0 -15 0zM1493.43 2078.7 a7.5 7.5 0 1 0 15 0 a7.5 7.5 0 1 0 -15 0zM1428.47 2116.2 a7.5 7.5 0 1 0 15 0 a7.5 7.5 0 1 0 -15 0zM1363.52 2078.7 a7.5 7.5 0 1 0 15 0 a7.5 7.5 0 1 0 -15 0zM1363.52 2003.7 a7.5 7.5 0 1 0 15 0 a7.5 7.5 0 1 0 -15 0z" fill="rgba(25, 224, 163, 1)"></path><path d="M62.75 363.19L106.06 388.19L106.06 438.19L62.75 463.19L19.45 438.19L19.45 388.19zM62.75 1563.19L106.06 1588.19L106.06 1638.19L62.75 1663.19L19.45 1638.19L19.45 1588.19zM19.45 1788.19L62.75 1813.19L62.75 1863.19L19.45 1888.19L-23.85 1863.19L-23.85 1813.19zM106.06 738.19L149.36 763.19L149.36 813.19L106.06 838.19L62.75 813.19L62.75 763.19zM106.06 1188.19L149.36 1213.19L149.36 1263.19L106.06 1288.19L62.75 1263.19L62.75 1213.19zM106.06 1938.19L149.36 1963.19L149.36 2013.19L106.06 2038.19L62.75 2013.19L62.75 1963.19zM149.36 2013.19L192.66 2038.19L192.66 2088.19L149.36 2113.19L106.06 2088.19L106.06 2038.19zM192.66 -11.81L235.96 13.19L235.96 63.19L192.66 88.19L149.36 63.19L149.36 13.19zM192.66 1488.19L235.96 1513.19L235.96 1563.19L192.66 1588.19L149.36 1563.19L149.36 1513.19zM192.66 1788.19L235.96 1813.19L235.96 1863.19L192.66 1888.19L149.36 1863.19L149.36 1813.19zM322.57 63.19L365.87 88.19L365.87 138.19L322.57 163.19L279.26 138.19L279.26 88.19zM279.26 288.19L322.57 313.19L322.57 363.19L279.26 388.19L235.96 363.19L235.96 313.19zM322.57 813.19L365.87 838.19L365.87 888.19L322.57 913.19L279.26 888.19L279.26 838.19zM409.17 363.19L452.48 388.19L452.48 438.19L409.17 463.19L365.87 438.19L365.87 388.19zM365.87 588.19L409.17 613.19L409.17 663.19L365.87 688.19L322.57 663.19L322.57 613.19zM365.87 738.19L409.17 763.19L409.17 813.19L365.87 838.19L322.57 813.19L322.57 763.19zM365.87 1188.19L409.17 1213.19L409.17 1263.19L365.87 1288.19L322.57 1263.19L322.57 1213.19zM409.17 1263.19L452.48 1288.19L452.48 1338.19L409.17 1363.19L365.87 1338.19L365.87 1288.19zM365.87 1338.19L409.17 1363.19L409.17 1413.19L365.87 1438.19L322.57 1413.19L322.57 1363.19zM409.17 1413.19L452.48 1438.19L452.48 1488.19L409.17 1513.19L365.87 1488.19L365.87 1438.19zM365.87 1488.19L409.17 1513.19L409.17 1563.19L365.87 1588.19L322.57 1563.19L322.57 1513.19zM452.48 -11.81L495.78 13.19L495.78 63.19L452.48 88.19L409.17 63.19L409.17 13.19zM452.48 888.19L495.78 913.19L495.78 963.19L452.48 988.19L409.17 963.19L409.17 913.19zM495.78 963.19L539.08 988.19L539.08 1038.19L495.78 1063.19L452.48 1038.19L452.48 988.19zM495.78 1563.19L539.08 1588.19L539.08 1638.19L495.78 1663.19L452.48 1638.19L452.48 1588.19zM582.38 813.19L625.69 838.19L625.69 888.19L582.38 913.19L539.08 888.19L539.08 838.19zM539.08 1038.19L582.38 1063.19L582.38 1113.19L539.08 1138.19L495.78 1113.19L495.78 1063.19zM582.38 1263.19L625.69 1288.19L625.69 1338.19L582.38 1363.19L539.08 1338.19L539.08 1288.19zM582.38 1863.19L625.69 1888.19L625.69 1938.19L582.38 1963.19L539.08 1938.19L539.08 1888.19zM625.69 438.19L668.99 463.19L668.99 513.19L625.69 538.19L582.38 513.19L582.38 463.19zM668.99 1113.19L712.29 1138.19L712.29 1188.19L668.99 1213.19L625.69 1188.19L625.69 1138.19zM625.69 1338.19L668.99 1363.19L668.99 1413.19L625.69 1438.19L582.38 1413.19L582.38 1363.19zM625.69 1488.19L668.99 1513.19L668.99 1563.19L625.69 1588.19L582.38 1563.19L582.38 1513.19zM668.99 1713.19L712.29 1738.19L712.29 1788.19L668.99 1813.19L625.69 1788.19L625.69 1738.19zM625.69 1938.19L668.99 1963.19L668.99 2013.19L625.69 2038.19L582.38 2013.19L582.38 1963.19zM668.99 2013.19L712.29 2038.19L712.29 2088.19L668.99 2113.19L625.69 2088.19L625.69 2038.19zM712.29 138.19L755.59 163.19L755.59 213.19L712.29 238.19L668.99 213.19L668.99 163.19zM755.59 663.19L798.9 688.19L798.9 738.19L755.59 763.19L712.29 738.19L712.29 688.19zM712.29 738.19L755.59 763.19L755.59 813.19L712.29 838.19L668.99 813.19L668.99 763.19zM712.29 1638.19L755.59 1663.19L755.59 1713.19L712.29 1738.19L668.99 1713.19L668.99 1663.19zM798.9 138.19L842.2 163.19L842.2 213.19L798.9 238.19L755.59 213.19L755.59 163.19zM842.2 213.19L885.5 238.19L885.5 288.19L842.2 313.19L798.9 288.19L798.9 238.19zM842.2 513.19L885.5 538.19L885.5 588.19L842.2 613.19L798.9 588.19L798.9 538.19zM798.9 888.19L842.2 913.19L842.2 963.19L798.9 988.19L755.59 963.19L755.59 913.19zM798.9 1338.19L842.2 1363.19L842.2 1413.19L798.9 1438.19L755.59 1413.19L755.59 1363.19zM885.5 -11.81L928.8 13.19L928.8 63.19L885.5 88.19L842.2 63.19L842.2 13.19zM885.5 138.19L928.8 163.19L928.8 213.19L885.5 238.19L842.2 213.19L842.2 163.19zM928.8 363.19L972.11 388.19L972.11 438.19L928.8 463.19L885.5 438.19L885.5 388.19zM928.8 663.19L972.11 688.19L972.11 738.19L928.8 763.19L885.5 738.19L885.5 688.19zM928.8 1113.19L972.11 1138.19L972.11 1188.19L928.8 1213.19L885.5 1188.19L885.5 1138.19zM928.8 1413.19L972.11 1438.19L972.11 1488.19L928.8 1513.19L885.5 1488.19L885.5 1438.19zM972.11 -11.81L1015.41 13.19L1015.41 63.19L972.11 88.19L928.8 63.19L928.8 13.19zM972.11 138.19L1015.41 163.19L1015.41 213.19L972.11 238.19L928.8 213.19L928.8 163.19zM1015.41 813.19L1058.71 838.19L1058.71 888.19L1015.41 913.19L972.11 888.19L972.11 838.19zM1102.01 963.19L1145.32 988.19L1145.32 1038.19L1102.01 1063.19L1058.71 1038.19L1058.71 988.19zM1058.71 1338.19L1102.01 1363.19L1102.01 1413.19L1058.71 1438.19L1015.41 1413.19L1015.41 1363.19zM1188.62 663.19L1231.92 688.19L1231.92 738.19L1188.62 763.19L1145.32 738.19L1145.32 688.19zM1188.62 813.19L1231.92 838.19L1231.92 888.19L1188.62 913.19L1145.32 888.19L1145.32 838.19zM1188.62 1713.19L1231.92 1738.19L1231.92 1788.19L1188.62 1813.19L1145.32 1788.19L1145.32 1738.19zM1145.32 1788.19L1188.62 1813.19L1188.62 1863.19L1145.32 1888.19L1102.01 1863.19L1102.01 1813.19zM1145.32 1938.19L1188.62 1963.19L1188.62 2013.19L1145.32 2038.19L1102.01 2013.19L1102.01 1963.19zM1231.92 588.19L1275.22 613.19L1275.22 663.19L1231.92 688.19L1188.62 663.19L1188.62 613.19zM1275.22 663.19L1318.53 688.19L1318.53 738.19L1275.22 763.19L1231.92 738.19L1231.92 688.19zM1231.92 888.19L1275.22 913.19L1275.22 963.19L1231.92 988.19L1188.62 963.19L1188.62 913.19zM1231.92 1338.19L1275.22 1363.19L1275.22 1413.19L1231.92 1438.19L1188.62 1413.19L1188.62 1363.19zM1231.92 1488.19L1275.22 1513.19L1275.22 1563.19L1231.92 1588.19L1188.62 1563.19L1188.62 1513.19zM1231.92 1788.19L1275.22 1813.19L1275.22 1863.19L1231.92 1888.19L1188.62 1863.19L1188.62 1813.19zM1275.22 2013.19L1318.53 2038.19L1318.53 2088.19L1275.22 2113.19L1231.92 2088.19L1231.92 2038.19zM1318.53 138.19L1361.83 163.19L1361.83 213.19L1318.53 238.19L1275.22 213.19L1275.22 163.19zM1318.53 888.19L1361.83 913.19L1361.83 963.19L1318.53 988.19L1275.22 963.19L1275.22 913.19zM1318.53 1038.19L1361.83 1063.19L1361.83 1113.19L1318.53 1138.19L1275.22 1113.19L1275.22 1063.19zM1361.83 1113.19L1405.13 1138.19L1405.13 1188.19L1361.83 1213.19L1318.53 1188.19L1318.53 1138.19zM1361.83 1263.19L1405.13 1288.19L1405.13 1338.19L1361.83 1363.19L1318.53 1338.19L1318.53 1288.19zM1448.43 63.19L1491.74 88.19L1491.74 138.19L1448.43 163.19L1405.13 138.19L1405.13 88.19zM1405.13 288.19L1448.43 313.19L1448.43 363.19L1405.13 388.19L1361.83 363.19L1361.83 313.19zM1405.13 1188.19L1448.43 1213.19L1448.43 1263.19L1405.13 1288.19L1361.83 1263.19L1361.83 1213.19zM1405.13 1338.19L1448.43 1363.19L1448.43 1413.19L1405.13 1438.19L1361.83 1413.19L1361.83 1363.19zM1448.43 1863.19L1491.74 1888.19L1491.74 1938.19L1448.43 1963.19L1405.13 1938.19L1405.13 1888.19zM1405.13 1938.19L1448.43 1963.19L1448.43 2013.19L1405.13 2038.19L1361.83 2013.19L1361.83 1963.19z" stroke="rgba(17, 59, 56, 1)" stroke-width="2"></path></g><defs><mask id="SvgjsMask1009"><rect width="1440" height="2060" fill="#ffffff"></rect></mask></defs></svg>